# xmcd
#
# Track frame offsets:
#	150
#	14331
#	33046
#	65203
#	90922
#	116950
#	129169
#	147680
#	159690
#	183652
#	201596
#	223849
#	236103
#	253028
#	281402
#	301910
#
# Disc length: 4343
#
# Revision: 2
# Processed by: cddbd v1.5.1PL0 Copyright (c) Steve Scherf et al.
# Submitted via: audiograbber 1.80
# Normalized: r1:DSETVAR1,TDELIM( - )
#
DISCID=f510f510
DTITLE=Various Artist - Sexy #2
DYEAR=1900
DGENRE=
TTITLE0=Pierre Bachelet and Herve Roy - Theme from Emmanuelle
TTITLE1=Love Unlimmited Orchestra - Loves Theme
TTITLE2=Barry White - I'm gonna love you just a little more baby
TTITLE3=Peaches and Herb - Reunited
TTITLE4=Urban Species - Blanket
TTITLE5=The style council - The whole point of no return
TTITLE6=Mica Paris - Breathe life into me
TTITLE7=Engelbert Humperdinck - Quiet Nights
TTITLE8=Marianne Faithfull - Yesterdays
TTITLE9=Omar - There's nothing like this
TTITLE10=Sam Brown - Stop
TTITLE11=Frankie Vaughan - Give me the moonlight, give me the girl
TTITLE12=John Barry - Midnight Cowboy
TTITLE13=Nicole Graham - You light me up
TTITLE14=Gerd - I dream you
TTITLE15=Time passing - Red sky
EXTD=
EXTT0=
EXTT1=
EXTT2=
EXTT3=
EXTT4=
EXTT5=
EXTT6=
EXTT7=
EXTT8=
EXTT9=
EXTT10=
EXTT11=
EXTT12=
EXTT13=
EXTT14=
EXTT15=
PLAYORDER=
